# xmcd
#
# Track frame offsets:
#	150
#	4907
#	19093
#	34885
#	49905
#	64949
#	80675
#	101658
#	116960
#	132679
#	145521
#	167494
#	184025
#	200325
#	212599
#	227904
#	243757
#	258906
#	274451
#	291069
#	305214
#
# Disc length: 4286 seconds
#
# Revision: 1
# Processed by: cddbd v1.4PL0 Copyright (c) Steve Scherf et al.
# Submitted via: audiograbber 1.80
#
DISCID=3c10bc15
DTITLE=EXTERMINADOR, Baladas - baladas
DYEAR=1900
DGENRE=
TTITLE0=INTRO
TTITLE1=EL PERDEDOR
TTITLE2=SOLO TU
TTITLE3=ME GUSTAS
TTITLE4=TOMAME O DEJAME
TTITLE5=DEPENDO CADA DIA MAS DE TI
TTITLE6=EL ALBUR DE TU VIDA
TTITLE7=LO MEJOR QUE ME PASO
TTITLE8=GRACIAS A DIOS
TTITLE9=MI MAYOR NECESIDAD
TTITLE10=SOY COCODRILO
TTITLE11=VUELVE
TTITLE12=PORQUE NO ERES LIBRE
TTITLE13=SIEMPRE TE AMARE
TTITLE14=RECUERDAME Y VEN A MI
TTITLE15=TE LLEVARE POR SIEMPRE
TTITLE16=NADIE TE AMA COMO YO
TTITLE17=COMO OLVIDARTE
TTITLE18=AMOR EN CANTIDADES
TTITLE19=SE VIVE SOLO UNA VEZ
TTITLE20=VUELVE AMOR
EXTD=
EXTT0=
EXTT1=
EXTT2=
EXTT3=
EXTT4=
EXTT5=
EXTT6=
EXTT7=
EXTT8=
EXTT9=
EXTT10=
EXTT11=
EXTT12=
EXTT13=
EXTT14=
EXTT15=
EXTT16=
EXTT17=
EXTT18=
EXTT19=
EXTT20=
PLAYORDER=
